                <svg
                  xmlns="http://www.w3.org/2000/svg"
                  viewBox="0 0 294.42 337.56"
                  class="logo"

                >
                  <path d="M87.94,35.5l8-10,7-4s1-1,7-2a61.73,61.73,0,0,1,9-1l8-6,8-4a32.24,32.24,0,0,1,6-2c4-1,25-4,25-4a88.68,88.68,0,0,1,13-1c7,0,26,6,26,6l24,8s17,7,19,8,8,3,8,3l7,7,6,6,8,8,2,5,6,12,3,8v8l-5,6,2,8,2,7v5l1,21,1,11,4,23s-2-11-4-12a27.36,27.36,0,0,1-5-4l-4-2-1-1s-4-3-11-1-15,8-15,8-3,1-2,3a13.38,13.38,0,0,1,1,5,7.81,7.81,0,0,1-2,5l-4,4s-3,1-2,3,1,10,1,10l3,26,3,23s1,7,4,10,6,10,6,10,0,3,4,5,5,8,5,8l-3,9-17,20s-2,3-9,7-21,18-21,18-19,13-21,14-12,5-17,6-34,1-42-3-12-5-13-5-6-8-6-10,0-12-4-16-3-8-10-13-1-3,2-3,5,9,9,10,4,2,8,6,3-9,4-12,0-3,4-3a29.45,29.45,0,0,0,9-1c9-3,10,6,12,7s4,8,8,5,14-7,14-7,3-9,4-7,11.88,2.12,14,0,18,0,18-3-3-8-9-10-16-5-15-9,17-23,17-23,15-13,18-19,7-19,8-29l4-13s0-9-3-13-4-5-6-5-17,5-17,5l-13,4s-3,6-6,8-9,7-9,7-4,1-3,3,3,3,3,7-1,15-3,18-9,11-14,12-15,2-19,1-13-4-17-9-11-18-11-21v-3l-9-1a4.94,4.94,0,0,1-1,3c-1,1-3,2-2,5s-2,13-3,17-3,10-8,12a39.26,39.26,0,0,1-14,3c-4,0-10-1-13-4s-10-6-14-15-5-15-7-16-5,0-5-2,1-2,0-4-3-6-2-8,5-5,10-8,11-6,16-7,10,0,15,2,16,7,18,9,5,1,9,0,5,1,8,0l3-1s13-9,22-11,22,1,27,2,9,3,14,1,44-17,44-17a51.62,51.62,0,0,0-6-16c-5-9-3-18-11-20s-4-5-52-12-57-7-68-4-22,11-23,20,9,17,0,14-11-7-17-5a47.09,47.09,0,0,1-24,1c-9-2-21-8-22-14s-5-11,7-18,21-9,30-10,16,1,16-1,9-20,12-25,8-7,10-10S87.94,35.5,87.94,35.5Z" />
                </svg>