<?xml version="1.0" encoding="iso-8859-1"?>
<!-- Generator: Adobe Illustrator 19.0.0, SVG Export Plug-In . SVG Version: 6.00 Build 0)  -->
<svg version="1.1" id="Layer_1" xmlns="http://www.w3.org/2000/svg" xmlns:xlink="http://www.w3.org/1999/xlink" x="0px" y="0px"
	 viewBox="0 0 512 512" style="enable-background:new 0 0 512 512;" xml:space="preserve">
<g>
	<g>
		<path d="M255.999,217.472c-21.245,0-38.528,17.284-38.528,38.528s17.285,38.528,38.528,38.528
			c21.245,0,38.528-17.284,38.528-38.528S277.244,217.472,255.999,217.472z M255.999,277.583c-11.9,0-21.581-9.681-21.581-21.581
			c0-11.9,9.682-21.581,21.581-21.581c11.9,0,21.581,9.681,21.581,21.581C277.581,267.901,267.9,277.583,255.999,277.583z"/>
	</g>
</g>
<g>
	<g>
		<path d="M503.527,247.527H474.1c-4.361-113.634-95.992-205.265-209.626-209.626V8.474c0-4.68-3.794-8.474-8.474-8.474
			c-4.68,0-8.473,3.794-8.473,8.474v29.427C133.892,42.262,42.262,133.894,37.901,247.527H8.473C3.794,247.527,0,251.32,0,256
			c0,4.68,3.794,8.473,8.474,8.473h29.428c4.361,113.634,95.992,205.265,209.626,209.626v29.427c0,4.68,3.794,8.474,8.473,8.474
			c4.68,0,8.474-3.794,8.474-8.474v-29.427c113.634-4.361,205.265-95.992,209.626-209.626h29.427c4.68,0,8.473-3.794,8.473-8.474
			C512,251.32,508.206,247.527,503.527,247.527z M428.084,264.473h29.056C452.8,368.762,368.76,452.8,264.473,457.141v-29.056
			c0-4.681-3.794-8.473-8.473-8.473c-4.68,0-8.473,3.793-8.473,8.473v29.056C143.239,452.8,59.199,368.76,54.858,264.473h29.056
			c4.68,0,8.474-3.794,8.474-8.473c0-4.68-3.793-8.473-8.474-8.473H54.858C59.199,143.238,143.239,59.2,247.526,54.859v29.056
			c0,4.681,3.794,8.474,8.473,8.474c4.68,0,8.473-3.793,8.473-8.474V54.859C368.761,59.2,452.8,143.24,457.141,247.527h-29.056
			c-4.68,0-8.473,3.794-8.473,8.473C419.611,260.68,423.405,264.473,428.084,264.473z"/>
	</g>
</g>
<g>
</g>
<g>
</g>
<g>
</g>
<g>
</g>
<g>
</g>
<g>
</g>
<g>
</g>
<g>
</g>
<g>
</g>
<g>
</g>
<g>
</g>
<g>
</g>
<g>
</g>
<g>
</g>
<g>
</g>
</svg>
