
<svg
viewBox="-78 0 1166 1166.2525"
xmlns="http://www.w3.org/2000/svg"
>
<path d="m979.617188 298.582031c-79.675782-171.316406-246.75-285.257812-435.328126-296.875l-18.746093-1.707031-17.132813.425781c-58.191406 2.140625-115.21875 16.882813-167.140625 43.25-138.039062 69.011719-225.046875 210.304688-224.535156 364.632813v72.363281l-113.828125 189.71875c-3.613281 5.992187-3.710938 13.476563-.261719 19.570313 3.457031 6.09375 9.921875 9.859374 16.925781 9.859374h121.644532l-11.792969 175.191407c-8.996094 51.820312 25.15625 101.300781 76.808594 111.285156 1.273437.25 2.585937.386719 3.878906.386719.695313 0 1.402344-.039063 2.078125-.109375l118.324219-12.835938v173.078125c0 10.730469 8.699219 19.4375 19.4375 19.4375h466.425781c10.734375 0 19.433594-8.707031 19.433594-19.4375v-193.136718l151.855468-375.230469c33.367188-90.863281 30.476563-191.074219-8.046874-279.867188zm-28.273438 266.035157-152.996094 378.132812c-1.0625 2.773438-1.457031 5.742188-1.179687 8.699219 0 .40625-.230469.761719-.230469 1.167969v174.761718h-427.554688v-174.910156c0-.402344-.21875-.761719-.234374-1.164062-.019532-.40625.167968-.855469.109374-1.292969-.222656-1.113281-.582031-2.191407-1.023437-3.230469-.210937-.855469-.488281-1.6875-.8125-2.507812-.785156-1.652344-1.796875-3.195313-3.027344-4.5625-.199219-.359376-.417969-.703126-.648437-1.039063-.214844-.171875-.445313-.328125-.664063-.515625-4.027343-3.960938-9.597656-5.929688-15.222656-5.382812l-136.769531 14.800781c-30.167969-7.609375-49.097656-37.496094-43.09375-68.023438l13.414062-197.828125c.753906-10.714844-7.324218-20.015625-18.035156-20.769531-1.460938 0-109.414062 0-109.414062 0l98.914062-164.957031c.183594-.398438.328125-.808594.449219-1.234375.566406-1.175781 1-2.410157 1.304687-3.667969.382813-1.273438.648438-2.582031.773438-3.898438 0-.445312.265625-.835937.265625-1.296874v-77.589844c-.53125-139.675782 78.132812-267.597656 203.039062-330.144532 46.894531-23.8125 98.398438-37.148437 150.941407-39.105468h15.546874c180.457032 5.09375 342.613282 111.585937 418.96875 275.175781 34.398438 79.453125 36.976563 169.09375 7.179688 250.382813zm0 0" />
<path d="m544.289062 200.621094c-71.515624-60.757813-178.234374-54.257813-241.835937 14.722656-63.617187 68.992188-61.449219 175.875 4.890625 242.230469l219.855469 219.90625c4.484375 4.476562 10.855469 6.484375 17.089843 5.40625 1.101563.191406 2.21875.289062 3.34375.289062 5.152344 0 10.089844-2.054687 13.742188-5.695312l219.855469-219.90625c66.339843-66.355469 68.511719-173.238281 4.894531-242.230469-63.613281-68.980469-170.335938-75.480469-241.835938-14.722656zm209.464844 229.476562-209.464844 209.488282-209.46875-209.488282c-53.132812-53.125-53.132812-139.261718 0-192.398437 53.128907-53.125 139.277344-53.125 192.398438 0l3.351562 3.34375c7.582032 7.589843 19.890626 7.589843 27.484376 0l3.335937-3.34375c53.128906-53.125 139.265625-53.125 192.398437 0 53.125 53.136719 53.125 139.273437 0 192.398437zm0 0" />
<path d="m431.023438 217.316406c-47.160157 0-89.675782 28.398438-107.726563 71.976563-18.046875 43.574219-8.070313 93.722656 25.265625 127.0625 7.625 7.359375 19.746094 7.261719 27.246094-.230469 7.488281-7.503906 7.601562-19.617188.238281-27.25-22.230469-22.230469-28.878906-55.660156-16.847656-84.710938 12.042969-29.050781 40.386719-47.988281 71.824219-47.980468 10.730468 0 19.433593-8.703125 19.433593-19.4375 0-10.722656-8.703125-19.429688-19.433593-19.429688zm0 0" />
</svg>